<svg width="29" height="23" viewBox="0 0 29 23" fill="none" xmlns="http://www.w3.org/2000/svg">
<path fill-rule="evenodd" clip-rule="evenodd" d="M22.0614 21.5803C22.0614 21.5803 23.7434 17.3703 26.2664 11.0543C26.5674 10.2803 26.9404 9.4093 27.2194 8.6253C27.2884 8.3473 27.2044 7.9563 26.9784 7.7223C26.8674 7.6013 26.7284 7.5123 26.5774 7.4693C26.4994 7.4483 26.4254 7.4393 26.3374 7.4373L25.9734 7.4393C24.0254 7.4463 21.9704 7.4543 19.8454 7.4623C15.5954 7.4793 11.0614 7.4973 6.52742 7.5143C5.39442 7.5183 4.26042 7.5223 3.13142 7.5273L2.28642 7.5303C2.01642 7.5313 1.65942 7.5223 1.61242 7.5723C1.30042 7.6663 1.06342 8.0203 1.05842 8.3753C1.03742 8.6483 1.33342 9.2823 1.48742 9.7793C1.67142 10.3003 1.85342 10.8193 2.03542 11.3353C2.39842 12.3663 2.75742 13.3853 3.11042 14.3883C3.81642 16.3923 4.49942 18.3303 5.14542 20.1673C5.32542 20.7073 5.39542 20.8923 5.64742 21.0383C5.76842 21.1053 5.86742 21.1323 6.02542 21.1303C6.25842 21.1293 6.48942 21.1283 6.71842 21.1273C7.63542 21.1243 8.52042 21.1213 9.37042 21.1173C16.1714 21.0913 20.7054 21.0743 20.7054 21.0743V22.3573C20.7054 22.3573 16.1714 22.3403 9.37042 22.3133C8.52042 22.3103 7.63542 22.3073 6.71842 22.3033C6.48942 22.3023 6.25842 22.3013 6.02542 22.3003C5.71842 22.3073 5.34342 22.2203 5.05742 22.0423C4.76242 21.8673 4.51742 21.6133 4.35442 21.3163C4.17342 20.9653 4.15042 20.7883 4.05642 20.5463C3.42342 18.7043 2.75642 16.7613 2.06542 14.7513C1.72042 13.7463 1.36942 12.7243 1.01442 11.6903C0.836418 11.1733 0.657418 10.6523 0.478418 10.1303L0.207418 9.3433C0.130418 9.1233 -0.0205816 8.7263 0.0024184 8.3443C0.0244184 7.5883 0.508418 6.8323 1.28542 6.5823C1.77542 6.4393 1.99742 6.5113 2.28642 6.4943L3.13142 6.4973C4.26042 6.5013 5.39442 6.5063 6.52742 6.5103C11.0614 6.5283 15.5954 6.5453 19.8454 6.5623C21.9704 6.5703 24.0254 6.5783 25.9734 6.5853L26.3374 6.5873C26.4924 6.5893 26.6574 6.6103 26.8114 6.6543C27.1224 6.7453 27.3964 6.9273 27.6024 7.1573C28.0154 7.6253 28.1714 8.2463 28.0174 8.8573C27.6774 9.7963 27.3374 10.5513 27.0184 11.3583C24.4464 17.6543 22.7324 21.8513 22.7324 21.8513L22.0614 21.5803Z" fill="black"/>
<path fill-rule="evenodd" clip-rule="evenodd" d="M21.2885 10.7879H21.2815L6.45851 11.3809C6.39251 11.3839 6.35551 11.4219 6.34051 11.4449C6.32351 11.4669 6.29951 11.5139 6.31651 11.5769L6.63051 12.6719C6.64851 12.7379 6.70951 12.7829 6.77751 12.7829H20.6925C20.7575 12.7829 20.8155 12.7419 20.8375 12.6809L21.4335 10.9929C21.4565 10.9259 21.4305 10.8749 21.4125 10.8509C21.3945 10.8269 21.3555 10.7879 21.2885 10.7879ZM20.6925 13.5329H6.77751C6.37651 13.5329 6.01851 13.2639 5.90951 12.8769L5.59651 11.7829C5.51851 11.5159 5.56851 11.2319 5.73151 11.0049C5.89451 10.7789 6.14951 10.6419 6.42951 10.6319L21.2525 10.0389C21.5615 10.0299 21.8385 10.1639 22.0165 10.4059C22.1935 10.6479 22.2405 10.9609 22.1405 11.2439L21.5445 12.9309C21.4175 13.2909 21.0755 13.5329 20.6925 13.5329Z" fill="black"/>
<path fill-rule="evenodd" clip-rule="evenodd" d="M19.6713 17.9569C19.7473 17.9559 19.8093 17.9109 19.8253 17.8379L20.1863 16.3029C20.2003 16.2399 20.1743 16.1939 20.1563 16.1719C20.1393 16.1499 20.1013 16.1139 20.0353 16.1139H20.0343L7.94233 16.1999C7.87533 16.2009 7.83633 16.2389 7.81933 16.2619C7.80233 16.2849 7.77633 16.3319 7.79433 16.3959L8.10533 17.4809C8.12333 17.5449 8.18133 17.5899 8.24733 17.5919L19.6713 17.9569ZM19.6763 18.7069C19.6663 18.7069 19.6573 18.7069 19.6483 18.7069L8.22433 18.3419C7.83033 18.3299 7.49233 18.0659 7.38433 17.6869L7.07333 16.6019C6.99533 16.3279 7.04833 16.0399 7.21933 15.8119C7.39033 15.5839 7.65133 15.4519 7.93633 15.4499L20.0293 15.3639C20.3413 15.3559 20.5693 15.4869 20.7423 15.7049C20.9163 15.9219 20.9803 16.2029 20.9163 16.4749L20.5563 18.0099C20.4603 18.4179 20.0923 18.7069 19.6763 18.7069Z" fill="black"/>
<path fill-rule="evenodd" clip-rule="evenodd" d="M5.56763 6.71075C5.56763 6.71075 6.30063 5.82175 7.45563 4.53875C8.03963 3.90175 8.72563 3.16375 9.48463 2.38875C9.86963 2.00675 10.2726 1.61675 10.6996 1.22875C10.9156 1.03575 11.1306 0.84175 11.3696 0.65375L11.5476 0.51175L11.5926 0.47675L11.6476 0.43675L11.7356 0.37475C11.8726 0.28175 12.0346 0.18175 12.2126 0.11175C12.3916 0.0397501 12.6206 -0.0242499 12.8896 0.00975012C13.1626 0.0397501 13.3996 0.19275 13.5426 0.32475C13.6176 0.39175 13.6776 0.45575 13.7306 0.51275L13.7686 0.55475L13.8106 0.60475L13.8266 0.62675C13.8456 0.65175 13.8676 0.67675 13.9146 0.75575C14.0606 1.01075 14.0886 1.23575 14.0826 1.45775C14.0226 2.32075 13.4316 2.80575 13.0996 3.16875C12.3526 3.95775 11.6176 4.64775 10.9846 5.23675C10.3566 5.83075 9.80563 6.29675 9.42463 6.62675C9.04263 6.95575 8.81463 7.13475 8.81463 7.13475L8.40563 6.69375C8.40563 6.69375 9.19363 5.86475 10.3746 4.61975C10.9606 3.99575 11.6436 3.26775 12.3756 2.48775C12.5406 2.30275 12.7686 2.07075 12.8636 1.92675C12.9796 1.75875 13.0576 1.55375 13.0566 1.42075C13.0616 1.36175 13.0326 1.29775 13.0376 1.30575C13.0526 1.32075 13.0306 1.28975 13.0056 1.25875L12.9886 1.23775L12.9806 1.22775C12.9736 1.21975 13.0236 1.27975 13.0006 1.25175L12.9966 1.24775L12.9636 1.20975C12.9206 1.16175 12.8826 1.12175 12.8516 1.09275C12.7846 1.03375 12.7666 1.02875 12.7516 1.02675C12.7346 1.02275 12.6746 1.02575 12.5896 1.05975C12.4996 1.09375 12.4146 1.14275 12.3126 1.20775L12.2236 1.26875C12.2146 1.27475 12.1826 1.29675 12.1916 1.29075L12.1516 1.32175L11.9926 1.44475C11.7796 1.60675 11.5686 1.79075 11.3616 1.97075C10.9456 2.33475 10.5456 2.71375 10.1596 3.08075C9.37763 3.80775 8.66263 4.50875 8.05463 5.11375C6.82763 6.31575 6.01063 7.11775 6.01063 7.11775L5.56763 6.71075Z" fill="black"/>
<path fill-rule="evenodd" clip-rule="evenodd" d="M21.9532 7.30028C21.9532 7.30028 21.1352 6.70428 19.9082 5.80928C19.2962 5.36128 18.5802 4.84328 17.8022 4.30528C17.4142 4.03628 17.0132 3.75828 16.6062 3.47628C16.4002 3.33928 16.1932 3.20128 15.9852 3.06328L15.6702 2.86228C15.5772 2.80328 15.4222 2.70428 15.4262 2.72128C15.3172 2.68128 15.1872 2.69428 15.0882 2.75628C15.0382 2.77228 14.8042 3.04128 14.7462 3.12828C14.6942 3.21928 14.6832 3.34028 14.7272 3.45428C14.7492 3.51028 14.7832 3.56428 14.8272 3.60928C14.8492 3.63228 14.8722 3.65428 14.9002 3.67228L15.0432 3.77428C15.8242 4.31628 16.5402 4.84228 17.1542 5.29228C18.3842 6.18828 19.1832 6.81728 19.1832 6.81728L18.8432 7.31228C18.8432 7.31228 17.9742 6.78728 16.7012 5.95228C16.0642 5.53628 15.3202 5.05228 14.5372 4.51228L14.3872 4.41028C14.3152 4.36128 14.2472 4.30328 14.1842 4.24128C14.0582 4.11528 13.9552 3.96228 13.8852 3.79128C13.7432 3.45228 13.7502 3.03128 13.9412 2.68328C13.9692 2.63628 14.0022 2.58228 14.0302 2.54328L14.0872 2.46828L14.2262 2.30528C14.2822 2.23128 14.4592 2.04328 14.6192 1.96028C14.9532 1.76128 15.3782 1.72428 15.7452 1.86428C15.9902 1.96428 16.0382 2.02528 16.1602 2.09628L16.4822 2.30828C16.6932 2.45228 16.9032 2.59528 17.1122 2.73828C17.5252 3.02528 17.9282 3.31328 18.3132 3.59728C19.0782 4.17128 19.7792 4.72128 20.3772 5.19628C21.5612 6.16228 22.3272 6.82928 22.3272 6.82928L21.9532 7.30028Z" fill="black"/>
</svg>
