<svg width="24" height="32" viewBox="0 0 24 32" fill="none" xmlns="http://www.w3.org/2000/svg">
<path fill-rule="evenodd" clip-rule="evenodd" d="M9.3348 19.6327V28.0642C9.3348 28.0642 7.7918 26.3793 5.4138 25.7561C3.0358 25.1321 1.4928 24.9709 1.4928 24.9709L1.5028 22.9793L2.1448 23.3073L2.3348 22.9026V21.9039L2.2648 20.8188L1.8698 19.7696L1.5158 19.3794L1.5818 15.7271C1.5818 15.7271 4.6028 16.1871 6.5708 17.3538C8.5378 18.5204 9.3348 19.6327 9.3348 19.6327Z" fill="#B4E0F1"/>
<path fill-rule="evenodd" clip-rule="evenodd" d="M11.7088 21.8004C11.7088 21.8004 11.7308 20.9084 12.6508 20.1106C13.5718 19.3128 17.1718 16.8242 20.0568 16.1749C22.9428 15.5265 22.3348 15.7274 22.3348 15.7274V19.4089C22.3348 19.4089 20.3398 20.4493 20.2538 21.6965C20.1678 22.9437 20.2458 23.2815 20.4598 23.7086C20.6738 24.1356 21.3348 24.2327 21.3348 24.2327V25.1169C21.3348 25.1169 17.9118 26.3311 16.2098 27.3327C13.8078 28.7469 12.4268 30.5541 11.9978 31.0947C11.5698 31.6354 11.7088 21.8004 11.7088 21.8004Z" fill="#B4E0F1"/>
<path fill-rule="evenodd" clip-rule="evenodd" d="M22.9126 21.7452C22.7836 22.0296 22.5376 22.314 22.2506 22.5431C22.0996 22.6625 21.9336 22.7644 21.7666 22.844C21.6866 22.8799 21.5896 22.9167 21.5306 22.9313C21.5126 22.941 21.4626 22.9497 21.4016 22.9546C21.3966 22.9546 21.3886 22.9527 21.3816 22.9604C21.3886 22.9585 21.3646 22.973 21.3356 22.9148C21.3056 22.8682 21.2826 22.7867 21.2676 22.7013C21.2376 22.5246 21.2386 22.3218 21.2516 22.1199C21.2676 21.9161 21.2956 21.7084 21.3466 21.5075C21.3706 21.4055 21.3966 21.3056 21.4316 21.2085C21.4646 21.1192 21.5006 21.026 21.5476 20.9212L21.5446 20.929C21.7246 20.5495 21.9006 20.2137 22.1636 19.972C22.2276 19.9099 22.2996 19.8545 22.3696 19.8041L22.4506 19.7517C22.4896 19.7604 22.5496 19.774 22.6026 19.7944C22.6766 19.8215 22.7466 19.8555 22.8036 19.8934C22.8606 19.9293 22.9066 19.9739 22.9246 20.0021C22.9246 20.0021 22.9216 20.0011 22.9226 19.9992L22.9576 20.069C22.9406 20.0467 22.9666 20.1108 22.9696 20.1321C23.0046 20.269 23.0176 20.4524 23.0166 20.6368C23.0076 20.993 22.9696 21.3822 22.9126 21.7452ZM22.5586 19.6847C22.5406 19.6973 22.5316 19.7031 22.5166 19.7119C22.5166 19.7119 22.5126 19.7128 22.5106 19.7138L22.5496 19.6905L22.5586 19.6847ZM16.9376 16.7982C16.7166 16.8991 16.4706 17.0156 16.2466 17.1359C15.3396 17.6037 14.4576 18.1269 13.6226 18.7277C13.2086 19.0325 12.8026 19.3527 12.4206 19.706C12.2316 19.8837 12.0436 20.0661 11.8666 20.2622C11.8286 20.3049 11.7926 20.3495 11.7556 20.3922C11.6156 20.2185 11.4706 20.0506 11.3196 19.8895C10.9586 19.5139 10.5666 19.1751 10.1636 18.8548C9.75459 18.5413 9.33659 18.2414 8.8996 17.9726C8.46659 17.6979 8.02059 17.4455 7.5666 17.2097C7.3426 17.0864 7.0996 16.9719 6.87759 16.868C6.6516 16.771 6.41659 16.6691 6.18659 16.5846L7.69959 15.7926C8.16959 15.5471 8.74759 15.6208 9.13559 15.978L11.0966 17.7852C11.3266 17.9968 11.6216 18.1036 11.9176 18.1036C12.2126 18.1036 12.5086 17.9968 12.7386 17.7852L15.0276 15.6762C15.2086 15.5112 15.4796 15.4869 15.6856 15.6208L17.2866 16.6516C17.1696 16.7001 17.0516 16.7496 16.9376 16.7982ZM11.7866 30.7872L11.7836 30.7853C11.7936 30.7931 11.8006 30.7989 11.7866 30.7872ZM2.4126 20.927C2.4586 21.029 2.49559 21.1202 2.5276 21.2075C2.56259 21.3056 2.5866 21.4055 2.61159 21.5075C2.66059 21.7093 2.6846 21.917 2.69959 22.1199C2.7116 22.3227 2.7106 22.5246 2.67959 22.6993C2.66359 22.7847 2.6396 22.8653 2.6096 22.909C2.5806 22.9653 2.5586 22.9459 2.5706 22.9449C2.5656 22.9362 2.5576 22.9371 2.5576 22.9371C2.49559 22.9323 2.44659 22.9226 2.43059 22.9129C2.37459 22.8973 2.2776 22.8605 2.19959 22.8245C2.0346 22.745 1.8706 22.6421 1.7216 22.5227C1.4416 22.2936 1.1976 22.0141 1.0726 21.7346C1.04659 21.5667 1.0226 21.3842 1.00859 21.2085C0.987595 21.0154 0.970595 20.8222 0.968595 20.6378C0.965595 20.4544 0.980595 20.2729 1.0116 20.138C1.01359 20.1185 1.0396 20.0545 1.0206 20.0797L1.0536 20.0118C1.06959 19.9856 1.1116 19.9438 1.1636 19.9089C1.2186 19.872 1.2876 19.8371 1.36059 19.8109C1.41159 19.7895 1.46959 19.775 1.5066 19.7662L1.5806 19.8128C1.65159 19.8623 1.7236 19.9167 1.78859 19.9768C2.05159 20.2156 2.23059 20.5495 2.4126 20.927ZM1.44459 19.7274C1.44159 19.7255 1.4376 19.7245 1.4356 19.7235C1.4196 19.7148 1.4106 19.709 1.3916 19.6954L1.40059 19.7012L1.44459 19.7274ZM6.1726 12.9789C6.2906 12.3635 6.3826 11.6599 6.38559 11.027C6.40359 10.3797 6.3886 9.73325 6.3556 9.09363L6.24659 7.20098C6.2246 6.57883 6.22659 5.98386 6.34459 5.39083C6.43059 4.79004 6.61759 4.21545 6.8566 3.67095C7.09459 3.12354 7.44659 2.63533 7.86459 2.21604C8.70459 1.37163 9.8856 0.885363 11.1146 0.733952L11.5696 0.688334L12.0586 0.670863L12.5066 0.686393L12.9596 0.740746C13.5606 0.836834 14.1366 1.05425 14.6556 1.3658C15.1756 1.67736 15.6396 2.08307 16.0326 2.54798C16.4296 3.01969 16.7376 3.52925 16.9886 4.10092C17.2266 4.64639 17.3806 5.25495 17.5006 5.86254C17.5956 6.35754 17.6626 6.86322 17.7106 7.36501C16.9426 7.24951 16.1716 7.10101 15.4146 6.91951C14.9786 6.8108 14.5446 6.6953 14.1166 6.56428C13.8996 6.50507 13.6906 6.42645 13.4786 6.35754C13.2666 6.28669 13.0556 6.21583 12.8506 6.13042C12.4316 5.9761 12.0306 5.79169 11.6336 5.60242C11.4336 5.50925 11.2496 5.3918 11.0576 5.28892C10.8616 5.18798 10.6856 5.06472 10.5106 4.94048C10.3346 4.81722 10.1506 4.70269 10.0026 4.55419C9.85559 4.41054 9.66659 4.28048 9.5526 4.1281C9.4346 3.97183 9.3026 3.84372 9.18559 3.67289L8.87059 3.08375L8.18059 3.43801L8.5076 4.02036C8.57759 4.12228 8.66059 4.22516 8.74559 4.32707C8.70959 4.39501 8.6666 4.47363 8.6066 4.57069C8.44759 4.83275 8.2056 5.16857 7.91759 5.46266C7.6326 5.75966 7.30259 6.00813 7.03759 6.16342C6.90559 6.24398 6.79159 6.30028 6.70859 6.33619C6.62759 6.37404 6.5806 6.39636 6.5806 6.39636L6.79259 6.90786C6.79259 6.90786 6.84759 6.88457 6.94359 6.84478C7.04159 6.80789 7.1776 6.74772 7.33359 6.6623C7.64859 6.49633 8.0406 6.22651 8.37959 5.90525C8.72159 5.58689 9.01059 5.22195 9.20459 4.93369C9.22059 4.91039 9.23259 4.89001 9.24759 4.86769C9.33859 4.94339 9.43059 5.01619 9.5196 5.09869C9.6946 5.26369 9.8966 5.38695 10.0936 5.51798C10.2886 5.65192 10.4856 5.78198 10.6956 5.88486C10.9036 5.9926 11.1046 6.11198 11.3176 6.2071C11.7416 6.40025 12.1666 6.58272 12.6046 6.73413C12.8206 6.81954 13.0376 6.88263 13.2586 6.95154C13.4796 7.01948 13.6906 7.08354 13.9136 7.13983C14.3576 7.26601 14.7906 7.35142 15.2396 7.45333C15.6926 7.5533 16.0856 7.62998 16.5086 7.69598C16.4236 8.77528 15.7996 14.0495 11.7346 14.0495C8.6186 14.0495 7.6196 9.71772 7.33459 7.85516L6.77259 7.93572C7.02259 9.56922 7.79959 12.9682 10.0066 14.1679C9.90759 14.2892 9.78659 14.4348 9.63759 14.5998L9.49659 14.758C9.33159 14.9453 9.2066 15.0831 9.00859 15.2481C8.5106 15.0356 7.92959 15.0462 7.42959 15.3083L5.55559 16.2886C5.62359 15.8344 5.72859 15.3287 5.8176 14.855L6.1726 12.9789ZM10.5396 14.4027C10.9036 14.5289 11.3006 14.5998 11.7346 14.5998C12.3296 14.5998 12.8566 14.4998 13.3266 14.328C13.5356 14.6114 13.8986 15.0569 14.3906 15.5034L12.3476 17.3854C12.1066 17.6076 11.7286 17.6076 11.4876 17.3854L9.5266 15.5791C9.51859 15.5713 9.5086 15.5665 9.5006 15.5587C9.66459 15.4102 9.7886 15.2734 9.9276 15.1171L10.0656 14.9628C10.2686 14.7376 10.4286 14.5425 10.5396 14.4027ZM18.0886 16.3653C18.0406 16.3818 17.9926 16.3973 17.9446 16.4138L15.9996 15.1608C15.6386 14.9288 15.1906 14.9385 14.8326 15.1491C14.3976 14.7628 14.0626 14.3668 13.8536 14.0931C16.4816 12.6926 16.9836 8.7976 17.0706 7.77266C17.1356 7.78139 17.2026 7.78916 17.2696 7.79692C17.2656 7.83963 17.2616 7.88622 17.2566 7.9396C17.2456 8.06383 17.2316 8.21428 17.2156 8.38704C17.2026 8.55204 17.1746 8.75975 17.1696 8.9956C17.1526 9.88757 17.2236 11.0232 17.3316 12.1704C17.3876 12.7401 17.4486 13.3167 17.5466 13.8553C17.6416 14.3901 17.7476 14.8812 17.8416 15.3005C17.9466 15.7538 18.0316 16.1207 18.0886 16.3653ZM22.3346 26.2313C21.3346 26.3371 17.3636 26.935 13.2356 30.1525L13.4846 30.5825C18.0826 26.999 22.1476 26.7612 22.1896 26.7593L22.3346 26.7467V26.2313ZM22.3346 23.6078L22.6246 23.3855C23.0526 23.0585 23.4066 22.6508 23.6666 22.1859L23.7686 22.0044L23.7866 21.9568C23.8746 21.5133 23.9366 21.092 23.9246 20.63C23.9176 20.4 23.9066 20.1651 23.8306 19.8992C23.8036 19.8215 23.7926 19.7866 23.7356 19.6692L23.6956 19.6012C23.6656 19.5575 23.6326 19.5139 23.5986 19.4731C23.4796 19.3411 23.3536 19.2567 23.2246 19.1887C23.0966 19.1217 22.8966 19.0752 22.7646 19.0412C22.6526 19.014 22.3346 18.9975 22.3346 18.9936V15.7276L22.1606 15.6859H22.1626C21.1376 15.6859 20.1386 15.8965 19.1426 16.1595C18.9766 16.2042 18.8106 16.1993 18.6456 16.2459C18.5986 16.0013 18.5306 15.6276 18.4496 15.2093C18.3726 14.791 18.2856 14.2902 18.2126 13.7699C18.1376 13.2536 18.0986 12.6877 18.0646 12.1228C17.9986 10.9989 17.9716 9.85263 18.0176 9.03636C18.0286 8.84516 18.0596 8.66269 18.0806 8.48313C18.1026 8.31036 18.1226 7.75422 18.1386 7.62998C18.1536 7.51351 18.1656 6.95057 18.1736 6.95057C18.1736 6.95057 18.1986 6.19448 18.0866 5.5568C17.9686 4.91913 17.8226 4.38822 17.5616 3.76219C17.3106 3.16625 16.9636 2.61495 16.5396 2.10151C16.1406 1.61719 15.6696 1.20469 15.1326 0.857216C14.5276 0.46704 13.4296 0.0894811 12.7086 0.0069811C12.6616 0.00212816 12.6136 -0.00369537 12.5666 -0.00854831L12.0366 -0.0289307L11.5466 -0.016313L11.0266 0.0273635C9.6736 0.173922 8.30459 0.702893 7.30559 1.67736C6.81159 2.15878 6.3966 2.72463 6.1166 3.34095C5.8346 3.95533 5.6196 4.59883 5.51559 5.25204C5.3766 5.9033 5.3636 6.58466 5.37759 7.22719L5.4596 9.13051C5.4886 9.91863 5.48959 10.699 5.4346 11.4784C5.4026 11.9277 5.3266 12.3742 5.2366 12.8168L4.8566 14.6726C4.7636 15.1433 4.66059 15.581 4.5786 16.0683C3.6236 15.8062 2.6556 15.6014 1.6686 15.4549L1.3346 15.4063V15.7276C1.3346 16.8137 1.3516 17.8988 1.3446 18.9849C1.2616 18.9936 1.18959 19.0072 1.1116 19.0247C0.978595 19.0587 0.851595 19.1052 0.720595 19.1722C0.590595 19.2411 0.463595 19.3246 0.341595 19.4595C0.305595 19.5012 0.273595 19.5459 0.242595 19.5915L0.201595 19.6585C0.142595 19.7798 0.132595 19.8138 0.103595 19.8934C0.023595 20.1612 0.00959504 20.3981 0.00159504 20.63C-0.00340496 20.861 0.00559504 21.0843 0.026595 21.3036C0.054595 21.5259 0.086595 21.7336 0.132595 21.9617L0.143595 22.0141L0.160595 22.0529C0.393595 22.5693 0.775595 22.9342 1.1996 23.2128C1.4126 23.3516 1.63859 23.471 1.8896 23.5602C2.0216 23.602 2.1376 23.6379 2.3036 23.6612C2.3976 23.6757 2.4596 23.6767 2.5096 23.6757C2.6196 23.6767 2.72659 23.6544 2.82859 23.6214C3.04659 23.5321 3.1926 23.3496 3.2476 23.2011C3.3136 23.0478 3.3336 22.9109 3.34759 22.7809C3.36859 22.5217 3.34459 22.2859 3.3106 22.0539C3.2766 21.8229 3.2146 21.6016 3.1616 21.3793L3.0696 21.0464C3.0346 20.927 2.99859 20.8145 2.96259 20.7155L2.95959 20.7087C2.81959 20.3204 2.6476 19.8769 2.3226 19.5032C2.2446 19.4081 2.1586 19.3217 2.0656 19.2382L1.9226 19.1188L1.9176 19.1159C1.9096 18.0987 1.9156 17.0825 1.9176 16.0663C2.7876 16.2245 3.65859 16.4255 4.50459 16.6797C4.98059 16.8215 5.4516 16.9816 5.9076 17.165C6.14059 17.2543 6.35359 17.3533 6.57659 17.4533C6.80959 17.5678 7.01959 17.6717 7.23359 17.795C7.66859 18.0318 8.0926 18.2841 8.50259 18.5549C8.9306 18.8296 9.3356 19.1344 9.7276 19.4498C10.1336 19.775 10.5096 20.1341 10.8516 20.5213C10.9726 20.6582 11.0896 20.798 11.1956 20.9426C11.3166 21.1017 11.3196 21.027 11.3976 21.1755L11.4176 26.3022L11.3206 28.913L11.2196 30.2175V30.3369L11.2566 30.2806C10.9066 29.9972 10.7316 29.9661 10.3586 29.7099L9.83759 29.3139L9.17659 28.8791C8.81759 28.6422 8.4446 28.4258 8.0626 28.2249C7.6816 28.025 7.3016 27.825 6.9076 27.6493C6.49559 27.4581 6.0776 27.2854 5.6516 27.1272C5.2236 26.9719 4.7936 26.8243 4.3546 26.703C3.9176 26.5749 3.17959 26.473 2.7316 26.3847C2.3666 26.3187 1.3346 26.2672 1.3346 26.2342V26.4837V26.5002C1.3346 26.5002 2.1886 26.6632 2.8396 26.8137C3.26559 26.9127 3.72759 27.0728 4.14759 27.2029C4.56859 27.3252 4.9986 27.5057 5.4086 27.661C5.8796 27.8435 6.3536 28.0667 6.8016 28.2841C7.2006 28.4782 7.58859 28.6879 7.96959 28.913C8.28759 29.1004 8.61059 29.2857 8.91259 29.4973L9.45959 29.8613L9.98559 30.2525C10.2426 30.4446 10.4946 30.6436 10.7406 30.8494L11.2556 31.2793L11.3406 31.3482C11.3406 31.3482 11.3956 31.3871 11.4336 31.4055C11.4736 31.4249 11.5036 31.4356 11.5406 31.4463C11.6856 31.4841 11.8406 31.4686 11.9706 31.4016C12.1026 31.3385 12.2356 31.2153 12.2826 31.0736C12.3046 31.0124 12.3346 30.9095 12.3346 30.8853V30.8028L12.3116 30.4767L12.3046 29.1722L12.3146 26.5613L12.3346 21.3405V21.3366V21.2473L12.2966 21.1823C12.2926 21.1755 12.2856 21.1697 12.2826 21.1629C12.3636 21.0503 12.4516 20.9348 12.5456 20.8261C12.6966 20.6485 12.8616 20.4777 13.0306 20.3097C13.3726 19.9759 13.7446 19.6643 14.1276 19.3654C14.9026 18.7743 15.7376 18.2463 16.6046 17.7687C16.8196 17.6455 17.0256 17.5426 17.2596 17.4271C17.4826 17.3271 17.6916 17.232 17.9246 17.1427C18.3786 16.9593 19.0596 16.8088 19.5356 16.6691C20.3816 16.4196 21.3346 16.109 22.3346 16.043V19.2363V19.409C22.2416 19.4925 21.9546 19.5915 21.8756 19.6847C21.5496 20.0564 21.0906 20.927 21.0566 21.0455L20.8806 21.3793C20.8296 21.6026 20.7296 21.8239 20.6966 22.0549C20.6636 22.2859 20.6196 22.5217 20.6426 22.7799C20.6556 22.909 20.6666 23.0449 20.7336 23.1953C20.7886 23.3409 20.9276 23.5195 21.1396 23.6059C21.2406 23.6379 21.3426 23.6592 21.4496 23.6583C21.4996 23.6583 21.7726 23.6573 21.8646 23.6427C21.9646 23.6282 22.3346 23.6078 22.3346 23.5855V23.6078Z" fill="black"/>
<path fill-rule="evenodd" clip-rule="evenodd" d="M22.0015 19.629H22.4365V15.6438L22.0015 15.6855V19.629Z" fill="black"/>
<mask id="mask0" mask-type="alpha" maskUnits="userSpaceOnUse" x="0" y="-1" width="24" height="33">
<path fill-rule="evenodd" clip-rule="evenodd" d="M0 31.4664H23.926V-0.0291748H0V31.4664Z" fill="white"/>
</mask>
<g mask="url(#mask0)">
<path fill-rule="evenodd" clip-rule="evenodd" d="M1.34595 26.4339H1.93095V22.9786H1.34595V26.4339Z" fill="black"/>
<path fill-rule="evenodd" clip-rule="evenodd" d="M21.75 26.4339H22.335V22.9786H21.75V26.4339Z" fill="black"/>
</g>
</svg>
