<svg width="25" height="31" viewBox="0 0 25 31" fill="none" xmlns="http://www.w3.org/2000/svg">
<mask id="mask0" mask-type="alpha" maskUnits="userSpaceOnUse" x="0" y="0" width="25" height="31">
<path fill-rule="evenodd" clip-rule="evenodd" d="M24.308 30.9073V0L0 0L0 30.9073H24.308Z" fill="white"/>
</mask>
<g mask="url(#mask0)">
<path fill-rule="evenodd" clip-rule="evenodd" d="M0.967756 8.41008L11.6058 15.0441L14.8868 9.08108L14.9218 8.99308L15.6798 7.64008L17.4078 4.50008L2.99576 8.05008C3.11876 7.76408 3.34976 7.56308 3.63176 7.48608L17.0228 3.78908L11.9278 1.53608C11.7638 1.46308 11.5768 1.44608 11.4018 1.48908L4.82676 3.08508L0.967756 8.41008ZM3.05776 23.1201C3.55676 24.6701 4.54676 25.9111 5.29076 26.6801C6.20676 27.6261 7.31876 28.3801 8.59676 28.9221C10.1038 29.5611 11.7358 29.8391 13.3168 29.7261C13.9938 29.6771 14.6698 29.5681 15.3248 29.4001C16.9618 28.9811 18.4818 28.1951 19.7238 27.1251C21.7698 25.3621 23.0768 22.7491 23.2198 20.1361C23.3378 17.9751 22.7708 15.8481 21.6238 14.1451C20.8498 12.9941 19.8898 12.0351 18.7708 11.2941C17.9878 10.7751 16.7558 10.0981 15.3308 9.81508C15.2128 9.79108 15.1418 9.77608 15.0788 9.79208C14.9958 9.81308 14.9618 9.87508 14.9178 9.95308L11.6958 15.3701C11.4698 15.2581 10.7058 14.8211 9.41976 14.0671L7.62376 13.0271L6.52876 12.3831C6.40176 12.3221 6.32176 12.2761 6.26476 12.2421C6.17376 12.1881 6.11176 12.1521 6.03076 12.1731C5.97176 12.1881 5.92576 12.2281 5.84176 12.2981C5.40076 12.6711 5.02976 13.0781 4.69176 13.4641C3.98476 14.2721 3.40876 15.2691 3.02376 16.3491C2.63176 17.4471 2.43376 18.6121 2.45176 19.7171C2.46576 20.5301 2.58476 21.3901 2.82676 22.4211L3.02076 22.3751L2.94776 22.4871L2.83076 22.4301L3.05776 23.1201ZM15.6298 30.5451C14.7138 30.7791 13.7718 30.9011 12.8318 30.9071C8.51376 30.9361 4.51776 28.5581 2.65176 24.8501C1.59776 22.7591 1.23576 20.3501 1.63076 18.0671C2.04976 15.6481 3.35076 13.4351 5.29176 11.8361L5.40276 11.7441L-0.000244141 8.62208L4.13476 2.16008C4.15376 2.13108 4.18976 2.11108 4.25676 2.09408L4.40576 2.06108L11.7958 0.00207654C11.8368 -0.00792346 11.8818 0.0190765 11.9518 0.0640765L18.5948 3.78008L15.4218 9.11008L15.5608 9.13808C16.8058 9.38208 18.0488 9.86708 19.1568 10.5401C21.3558 11.8791 23.0218 13.9401 23.7298 16.1951C24.4448 18.4721 24.4978 20.7111 23.8848 22.6711C23.0728 25.2681 21.4278 27.4921 19.2508 28.9341C18.1338 29.6741 16.9158 30.2161 15.6308 30.5441L15.6298 30.5451Z" fill="#181716"/>
</g>
<path fill-rule="evenodd" clip-rule="evenodd" d="M16.7136 12.1038C16.7136 12.1038 16.8586 12.1798 17.1296 12.3228C17.4126 12.4848 17.8096 12.7248 18.2746 13.0958C18.7366 13.4668 19.2656 13.9678 19.7636 14.6338C20.2636 15.2978 20.7086 16.1418 21.0096 17.1218L21.1206 17.5148L21.1966 17.8828C21.2536 18.1248 21.3016 18.3838 21.3236 18.6748C21.3586 18.9578 21.3846 19.2448 21.3756 19.5288C21.3826 19.8148 21.3766 20.1048 21.3386 20.3978C21.2306 21.5688 20.8616 22.7848 20.2176 23.8998C19.5616 25.0058 18.6296 26.0008 17.4946 26.7428C16.3746 27.4898 14.9956 27.9448 13.6576 28.0568C10.8806 28.3268 8.10955 27.0788 6.46955 25.1048C5.63555 24.1278 5.06055 22.9978 4.75155 21.8678C4.64655 21.5538 4.62455 21.3148 4.55855 21.0398C4.52455 20.7528 4.46655 20.4628 4.46055 20.1898C4.41355 19.6398 4.44455 19.1048 4.49855 18.5978C4.61355 17.5798 4.93755 16.6858 5.30055 15.9468C5.66955 15.2068 6.09355 14.6208 6.47755 14.1728C6.87155 13.7308 7.21355 13.4168 7.45755 13.2168C7.70455 13.0208 7.83655 12.9158 7.83655 12.9158L8.19555 13.3878C8.19555 13.3878 8.07655 13.4888 7.85355 13.6788C7.63355 13.8718 7.32755 14.1738 6.97855 14.5918C6.29855 15.4298 5.48555 16.8348 5.28655 18.6888C5.24455 19.1488 5.22155 19.6318 5.27055 20.1288C5.27855 20.3808 5.33455 20.6158 5.36255 20.8668C5.42655 21.1178 5.46955 21.4298 5.55255 21.6418C5.84555 22.6578 6.37555 23.6648 7.13255 24.5308C7.88255 25.4038 8.87255 26.1178 9.99155 26.5658C11.1006 27.0268 12.3566 27.2178 13.5496 27.0888C14.7896 26.9538 15.9556 26.5908 16.9736 25.9308C17.9856 25.2838 18.8246 24.4078 19.4206 23.4278C20.0036 22.4388 20.3446 21.3558 20.4516 20.3098C20.5146 19.7908 20.5086 19.2608 20.4566 18.7908C20.4296 18.3418 20.2946 17.7468 20.1876 17.3678C19.6636 15.5868 18.6206 14.3588 17.8076 13.6568C17.3976 13.3018 17.0376 13.0648 16.7986 12.9148C16.5376 12.7638 16.3976 12.6828 16.3976 12.6828L16.7136 12.1038Z" fill="#181716"/>
</svg>
