<svg width="23" height="19" viewBox="0 0 23 19" fill="none" xmlns="http://www.w3.org/2000/svg">
<path fill-rule="evenodd" clip-rule="evenodd" d="M10.2536 6.05184C10.8266 4.68684 11.5746 3.41184 12.5476 2.26884C13.0496 1.71584 13.5956 1.17884 14.2646 0.781844C14.9176 0.376844 15.6756 0.0618439 16.4806 0.0218439C17.2726 -0.072156 18.1106 0.146844 18.7726 0.403844C19.5426 0.734844 20.1856 1.18784 20.7246 1.76984C21.2466 2.35484 21.6856 3.02084 21.9566 3.74984C22.2646 4.46684 22.4066 5.23584 22.4866 6.00284C22.5286 6.77184 22.5106 7.55284 22.3246 8.30584C22.1736 9.06484 21.8846 9.79284 21.5186 10.4768C21.1366 11.1408 20.6326 11.7968 20.1056 12.2968C19.6056 12.8108 19.0206 13.3988 18.4676 13.8638C16.2016 15.7398 13.7396 16.7358 11.1546 18.7358H11.1526L10.7046 18.8938L10.4656 18.3918C10.2086 17.8908 9.86657 17.3448 9.50757 16.8668C9.14757 16.3818 8.74757 15.9168 8.32157 15.4908C7.89957 15.0618 7.45057 14.6548 6.97057 14.2958C6.49757 13.9248 5.98057 13.6168 5.45657 13.3298C4.90157 13.0318 4.32757 12.7228 3.77857 12.3448C3.22957 11.9878 2.71357 11.5688 2.23057 11.1098C1.27457 10.1908 0.472574 9.00584 0.168574 7.65284C0.00957431 6.98284 -0.0324257 6.28984 0.0235743 5.61484C0.0365743 5.44684 0.0655743 5.27984 0.0855743 5.11284C0.101574 5.01684 0.0985743 4.97484 0.129574 4.83384L0.185574 4.60484C0.241574 4.31184 0.366574 3.97084 0.497574 3.63384C0.781574 3.00384 1.11757 2.41084 1.58257 1.90584C2.02457 1.38684 2.56557 0.944844 3.17957 0.628844C3.77757 0.276844 4.47657 0.138844 5.15757 0.0588439C5.84557 0.048844 6.53757 0.122844 7.16657 0.366844C7.48457 0.479844 7.79657 0.601844 8.07757 0.779844C8.36858 0.939844 8.65857 1.09984 8.90957 1.30984C9.45357 1.68184 9.90257 2.14884 10.3686 2.59484L9.96557 2.99384C9.49757 2.59684 9.04857 2.17684 8.52957 1.86584C8.28657 1.68284 8.01557 1.55584 7.74757 1.42784C7.48657 1.27884 7.20457 1.19184 6.92457 1.10684C6.36957 0.912844 5.78857 0.882844 5.22257 0.905844C4.66657 1.00184 4.10457 1.12284 3.62257 1.43784C3.13057 1.71884 2.68457 2.09184 2.32257 2.53984C1.93857 2.96784 1.66357 3.49484 1.44157 4.00984C1.35157 4.26384 1.25357 4.50984 1.19557 4.83884L1.14457 5.06884L1.12357 5.25684L1.07857 5.69184C1.04357 6.27184 1.09857 6.84584 1.22457 7.40084C1.47557 8.51584 2.13857 9.50884 2.98657 10.3248C3.85457 11.1538 4.84757 11.7798 5.96257 12.3578C6.54257 12.6728 7.11157 13.0108 7.63057 13.4168C8.15557 13.8118 8.65357 14.2438 9.10357 14.7208C9.55557 15.1948 9.97457 15.6988 10.3526 16.2328C10.7336 16.7708 11.0706 17.3248 11.3736 17.9518L10.6856 17.7358H10.6876C11.9226 16.7358 13.1446 16.2698 14.3256 15.4758C15.5146 14.6908 16.6766 13.8548 17.7606 12.9478C18.3086 12.4828 18.8116 12.0428 19.3176 11.5238C19.8356 11.0278 20.2056 10.5208 20.5496 9.94084C20.8596 9.35484 21.1106 8.72984 21.2386 8.07284C21.4036 7.42284 21.4076 6.74584 21.3956 6.07884C21.3396 5.41584 21.2346 4.74584 20.9836 4.13084C20.7676 3.49984 20.4076 2.93684 19.9876 2.43784C19.5596 1.94684 19.0036 1.55684 18.4586 1.29684C17.7926 1.02584 17.1936 0.860844 16.5436 0.916844C15.9026 0.928844 15.2766 1.17084 14.7046 1.50584C14.1186 1.82884 13.6176 2.31184 13.1336 2.80084C12.1896 3.81184 11.4036 5.02084 10.8066 6.28684L10.2536 6.05184Z" fill="#181716"/>
</svg>
