<svg width="20" height="25" viewBox="0 0 20 25" fill="none" xmlns="http://www.w3.org/2000/svg">
<path fill-rule="evenodd" clip-rule="evenodd" d="M8.77043 7.81724C8.97143 7.80924 9.25243 7.78624 9.58443 7.73024C9.91843 7.68124 10.3004 7.58424 10.7014 7.45924C11.0994 7.32024 11.5194 7.15224 11.9074 6.92124C12.3024 6.70524 12.6634 6.42724 12.9734 6.14124C13.0124 6.11024 13.0434 6.07424 13.0784 6.04024C13.1264 6.12024 13.1814 6.20724 13.2444 6.30124C13.4834 6.66624 13.8394 7.12824 14.2614 7.53024C14.6794 7.93724 15.1604 8.27724 15.5474 8.48524C15.7394 8.59324 15.9064 8.66824 16.0264 8.71524C16.1444 8.76524 16.2114 8.79424 16.2114 8.79424L16.4294 8.25124C16.4294 8.25124 16.3714 8.22324 16.2694 8.17324C16.1664 8.12724 16.0214 8.05324 15.8574 7.94924C15.5244 7.74824 15.1124 7.42524 14.7564 7.04224C14.3964 6.66324 14.0954 6.22924 13.8974 5.89224C13.7634 5.66724 13.6824 5.50124 13.6404 5.40924C13.6734 5.36324 13.7074 5.31724 13.7374 5.27224C13.8334 5.13124 13.9364 5.00124 13.9974 4.88824C14.0584 4.77424 14.1124 4.67624 14.1564 4.59424C14.2444 4.43124 14.2954 4.33824 14.2954 4.33824L13.7874 4.04724C13.7874 4.04724 13.7334 4.13724 13.6374 4.29624C13.5894 4.37524 13.5304 4.47124 13.4634 4.58124C13.3974 4.69224 13.3084 4.78424 13.2204 4.90224C13.1334 5.01724 13.0364 5.14024 12.9084 5.25824C12.7864 5.37724 12.6694 5.51424 12.5174 5.62324C12.2334 5.86024 11.9064 6.08924 11.5494 6.26124C11.2004 6.44724 10.8214 6.57624 10.4654 6.68224C10.1044 6.77524 9.76243 6.84524 9.46543 6.87324C8.87143 6.94424 8.47843 6.90324 8.49943 6.90624L8.44043 7.82124C8.44043 7.82124 8.47243 7.82224 8.53443 7.82324C8.59043 7.82324 8.67143 7.82224 8.77043 7.81724Z" fill="black"/>
<mask id="mask0" mask-type="alpha" maskUnits="userSpaceOnUse" x="0" y="0" width="20" height="25">
<path fill-rule="evenodd" clip-rule="evenodd" d="M19.059 0.00012207V24.9486H0V0.00012207L19.059 0.00012207V0.00012207Z" fill="white"/>
</mask>
<g mask="url(#mask0)">
<path fill-rule="evenodd" clip-rule="evenodd" d="M6.67057 16.6648C4.55357 14.6608 3.91557 11.0238 3.75557 9.78175C3.87557 9.72775 3.99757 9.67875 4.11757 9.62275C4.39757 9.48975 4.66657 9.35175 4.94557 9.19075C5.09057 9.10875 5.19557 9.04275 5.33857 8.94575C5.46557 8.85575 5.59657 8.77375 5.71957 8.67875C6.21857 8.31375 6.68957 7.91275 7.12257 7.47575C7.54657 7.02675 7.94757 6.57175 8.28657 6.03475L7.80657 5.69975C7.44557 6.12775 7.03057 6.54675 6.59657 6.92075C6.16257 7.29975 5.70757 7.65275 5.22657 7.96275C5.10857 8.04375 4.98257 8.11275 4.86157 8.18875L4.48957 8.40075C4.25057 8.53375 3.98657 8.66275 3.72657 8.77975C3.42857 8.91475 3.11957 9.03875 2.81057 9.15475C2.86457 8.60375 2.93157 8.05075 3.02857 7.50875C3.17157 6.72875 3.35457 5.94975 3.64857 5.25075C3.95357 4.52175 4.33557 3.86375 4.82957 3.26275C5.31657 2.66675 5.89257 2.14775 6.54157 1.74875C7.18957 1.34875 7.91557 1.08775 8.66557 0.966753C9.41157 0.845753 10.2056 0.864753 10.9786 0.967753C12.5206 1.16775 14.0036 1.81675 15.0446 2.94375C16.1006 4.05875 16.6756 5.57575 16.9046 7.13275C17.0326 7.92875 17.0446 8.66775 16.9336 9.46375C16.8256 10.2558 16.6966 11.0998 16.6766 11.9338C16.6336 12.7698 16.6966 13.6338 16.8376 14.4498C16.9046 14.8618 16.9866 15.2678 17.0676 15.6678C17.1056 15.8648 17.1526 16.0748 17.1756 16.2508C17.1966 16.4138 17.1906 16.5698 17.1496 16.7008C17.0706 16.9518 16.8426 17.0808 16.4986 17.0848C16.1696 17.0898 15.7786 16.9648 15.3686 16.8768C14.8466 16.7498 14.2746 16.6828 13.7096 16.7308C15.2746 14.7748 15.9136 11.7778 16.1556 10.1538L15.5766 10.0678C15.2216 12.4618 13.9726 18.0278 10.0646 18.0278C8.64157 18.0278 7.53357 17.4828 6.67057 16.6658V16.6648ZM4.88657 16.8918C4.61857 16.9258 4.32857 16.9628 4.02257 17.0018C3.75557 17.0348 3.45657 17.0338 3.25957 16.9568C3.06957 16.8838 2.98457 16.7608 2.94857 16.4708C2.91957 16.1938 2.96757 15.8528 3.03057 15.5128C3.09357 15.1698 3.17757 14.8188 3.23557 14.4488C3.29357 14.0718 3.30657 13.7068 3.30657 13.3568C3.30757 12.6508 3.19157 12.0018 3.12557 11.4848C3.05457 10.8978 2.99757 10.4238 2.96057 10.1098C3.03857 10.0798 3.12057 10.0518 3.19857 10.0208C3.39157 11.3848 4.03957 14.6668 5.94657 16.7568C5.65957 16.7938 5.30057 16.8388 4.88657 16.8918ZM18.8686 23.8658C18.7746 23.6108 18.7076 23.3508 18.5896 23.1048C18.4786 22.8558 18.3656 22.6108 18.2156 22.3798C18.0866 22.1418 17.9086 21.9288 17.7456 21.7128C17.5626 21.5098 17.3796 21.3098 17.1686 21.1368C16.9626 20.9598 16.7426 20.8008 16.5096 20.6658C16.2796 20.5248 16.0336 20.4148 15.7846 20.3158C15.6566 20.2728 15.5326 20.2268 15.4006 20.1938C15.2686 20.1568 15.1446 20.1318 14.9896 20.1088L14.7796 20.0788L14.6786 20.2778L14.6766 20.2818C14.5916 20.4448 14.4436 20.6378 14.2886 20.7938C14.1356 20.9588 13.9556 21.1018 13.7726 21.2388C13.5836 21.3698 13.3856 21.4878 13.1776 21.5928C12.9666 21.6908 12.7566 21.7918 12.5316 21.8608C12.0916 22.0228 11.6236 22.1118 11.1556 22.1858C10.9196 22.2068 10.6936 22.2398 10.4506 22.2518C10.2096 22.2578 9.94657 22.2738 9.72557 22.2698C9.24557 22.2618 8.76757 22.2328 8.29757 22.1598C7.82857 22.0848 7.36457 21.9778 6.92257 21.8178C6.70357 21.7348 6.48257 21.6508 6.27757 21.5418C6.06757 21.4388 5.86757 21.3188 5.67657 21.1888C5.53757 21.0918 5.40557 20.9868 5.27957 20.8758C5.39057 20.8218 5.53757 20.7428 5.71057 20.6368C6.07457 20.4188 6.53357 20.0858 6.95257 19.7088C7.37457 19.3348 7.75557 18.9198 8.02457 18.5918C8.11257 18.4878 8.18457 18.3958 8.24857 18.3118C8.79557 18.5018 9.39657 18.6128 10.0646 18.6128C10.6116 18.6128 11.1116 18.5198 11.5676 18.3518C11.7036 18.5288 11.9136 18.7938 12.1776 19.0958L12.3506 19.2958C12.6146 19.6028 12.8226 19.8458 13.2626 20.1838L13.6196 19.7208C13.2276 19.4188 13.0546 19.2188 12.7936 18.9148L12.6176 18.7108C12.4136 18.4778 12.2416 18.2658 12.1146 18.1018C12.4376 17.9278 12.7366 17.7148 13.0126 17.4708C13.7206 17.2458 14.4726 17.2948 15.2256 17.4888C15.6116 17.5748 16.0066 17.7248 16.4996 17.7368C16.7406 17.7388 17.0046 17.6988 17.2536 17.5628C17.5036 17.4298 17.6996 17.1788 17.7896 16.9208C17.8776 16.6628 17.8856 16.4008 17.8596 16.1598C17.8326 15.9298 17.7896 15.7398 17.7536 15.5348C17.6786 15.1328 17.6046 14.7368 17.5466 14.3398C17.4246 13.5428 17.3716 12.7668 17.4346 11.9698C17.4796 11.1678 17.5956 10.3928 17.7176 9.56675C17.8456 8.74375 17.8376 7.83175 17.7076 7.01275C17.5866 6.17675 17.3786 5.34475 17.0466 4.55075C16.7136 3.75975 16.2576 3.00675 15.6616 2.36875C15.0706 1.72875 14.3516 1.20575 13.5686 0.830753C12.7856 0.455753 11.9466 0.221753 11.0996 0.101753C10.2556 -0.0152473 9.39757 -0.0452473 8.52657 0.0867527C7.66357 0.220753 6.81957 0.518753 6.07257 0.972753C5.32457 1.42575 4.66757 2.01275 4.11657 2.67775C3.56457 3.33475 3.11557 4.10575 2.78557 4.88175C2.44157 5.69075 2.24757 6.51375 2.09057 7.33775C1.94057 8.16575 1.83057 8.98275 1.78157 9.83175L1.74057 10.5408L2.38157 10.3238C2.41057 10.6328 2.44957 11.0518 2.49657 11.5538C2.55357 12.1078 2.64457 12.7058 2.62657 13.3518C2.61757 13.6758 2.59757 14.0078 2.53857 14.3308C2.47757 14.6588 2.38557 15.0058 2.30857 15.3678C2.23357 15.7318 2.15757 16.1088 2.18557 16.5388C2.20257 16.7528 2.25257 16.9898 2.38657 17.2118C2.51957 17.4348 2.74357 17.6028 2.95557 17.6898C3.39057 17.8618 3.76857 17.8408 4.11057 17.8168C4.41857 17.7868 4.70957 17.7588 4.97757 17.7328C6.05157 17.6298 6.76757 17.5608 6.76757 17.5608L6.76257 17.5128C6.95657 17.6608 7.16257 17.7948 7.37757 17.9168C7.35057 17.9578 7.32657 17.9948 7.29557 18.0408C7.07757 18.3598 6.76257 18.7738 6.40757 19.1508C6.05557 19.5308 5.66457 19.8708 5.35257 20.0988C5.19857 20.2148 5.06457 20.3028 4.96757 20.3598C4.91657 20.3918 4.87957 20.4148 4.85357 20.4308C4.80757 20.3718 4.75857 20.3118 4.72557 20.2578L4.61657 19.8788L4.42057 19.7098H4.41457C4.25457 19.7098 4.13057 19.9678 3.99557 20.0088C3.86457 20.0488 3.73557 20.1948 3.60957 20.2468C3.35757 20.3498 3.11457 20.5258 2.88457 20.6698C2.65357 20.8128 2.42957 20.9958 2.22457 21.1738C2.11857 21.2598 2.01457 21.3608 1.92057 21.4588C1.82557 21.5548 1.72157 21.6518 1.63357 21.7548C1.45457 21.9588 1.27457 22.1678 1.12157 22.3918C0.953573 22.6068 0.821573 22.8438 0.678573 23.0748C0.538573 23.3078 0.422573 23.5668 0.295573 23.8148L-0.000427246 24.5168L1.23057 24.9488L1.43957 24.2228C1.52157 24.0128 1.58557 23.7978 1.68157 23.5848C1.78057 23.3738 1.86957 23.1538 1.99157 22.9548C2.09957 22.7458 2.23157 22.5548 2.36357 22.3618C2.42757 22.2638 2.50657 22.1788 2.57757 22.0858C2.64757 21.9918 2.72657 21.9068 2.80757 21.8228C2.96457 21.6498 3.13857 21.4938 3.32057 21.3478C3.50257 21.2018 3.69657 21.0698 3.89957 20.9568C4.00057 20.8998 4.10457 20.8478 4.20957 20.8018C4.25757 20.7798 4.30957 20.7598 4.35857 20.7408C4.47757 20.8988 4.59957 21.0398 4.73557 21.1738C4.92357 21.3608 5.13057 21.5208 5.34457 21.6698C5.55957 21.8168 5.78257 21.9508 6.01457 22.0638C6.24357 22.1848 6.48457 22.2778 6.72457 22.3678C7.20757 22.5428 7.70657 22.6578 8.20857 22.7378C8.71057 22.8158 9.21657 22.8468 9.72057 22.8548C9.99057 22.8578 10.2186 22.8418 10.4706 22.8368C10.7186 22.8248 10.9796 22.7888 11.2336 22.7658C11.7366 22.6858 12.2396 22.5908 12.7246 22.4128C12.9696 22.3358 13.2056 22.2248 13.4396 22.1158C13.6726 21.9988 13.8966 21.8648 14.1116 21.7158C14.3226 21.5588 14.5286 21.3938 14.7116 21.1988C14.8446 21.0588 14.9616 20.9088 15.0726 20.7408C15.1176 20.7558 15.1636 20.7718 15.2076 20.7908C15.3136 20.8298 15.4156 20.8828 15.5186 20.9298C15.7186 21.0388 15.9146 21.1538 16.0926 21.2938C16.2746 21.4288 16.4416 21.5818 16.5936 21.7458C16.7496 21.9068 16.8806 22.0898 17.0106 22.2698C17.1216 22.4648 17.2476 22.6478 17.3296 22.8578C17.4296 23.0568 17.4986 23.2718 17.5666 23.4848C17.6416 23.6948 17.6706 23.9258 17.7256 24.1418C17.7596 24.3658 17.7806 24.5938 17.8106 24.8178L19.0596 24.6478C18.9956 24.3858 18.9396 24.1238 18.8686 23.8658Z" fill="black"/>
</g>
</svg>
